<svg width="191" height="178" viewBox="0 0 191 178" fill="none" xmlns="http://www.w3.org/2000/svg">
<g clip-path="url(#clip0_1554_198)">
<path d="M145.704 45.9315L127.931 9.45879C127.44 8.45137 126.417 7.8125 125.297 7.8125H66.7032C65.5827 7.8125 64.5604 8.45156 64.0696 9.45879L46.2961 45.9315C45.8805 46.7846 45.9037 47.7862 46.3584 48.619C46.8131 49.4518 47.6432 50.013 48.5856 50.1243C51.0809 50.4194 53.5203 50.4632 55.961 50.2725V89.258C55.961 90.8759 57.2727 92.1877 58.8906 92.1877C62.7473 92.1877 130.583 92.1877 133.11 92.1877C134.728 92.1877 136.039 90.8759 136.039 89.258V50.2737C138.483 50.4645 140.952 50.4153 143.415 50.1241C144.357 50.0128 145.187 49.4516 145.642 48.6188C146.096 47.786 146.12 46.7845 145.704 45.9315ZM105.709 13.6719L114.17 37.6911C105.756 46.8561 86.1522 46.7553 77.8297 37.6911L86.2909 13.6719H105.709ZM53.5016 44.5206L68.5344 13.6719H80.0786L71.9071 36.8688C67.7399 42.1489 60.2555 44.4219 53.5016 44.5206ZM81.3516 86.3283H61.8203V77.5392H81.3516V86.3283ZM104.789 86.3283H87.211V62.8907H104.789V86.3283ZM130.18 86.3283H110.649V77.5392H130.18V86.3283ZM130.18 71.6798H110.649V59.961C110.649 58.3431 109.337 57.0313 107.719 57.0313H84.2813C82.6634 57.0313 81.3516 58.3431 81.3516 59.961V71.6798H61.8203V49.3399C66.4637 48.2018 71.0245 46.0327 74.5165 42.6858C85.2585 52.9741 106.759 52.9579 117.484 42.6858C120.945 46.0034 125.486 48.1895 130.18 49.3399V71.6798ZM120.093 36.8684L111.921 13.6719H123.466L138.499 44.5208C131.769 44.4216 124.276 42.1686 120.093 36.8684Z" fill="#020202"/>
</g>
<path d="M15.7224 142.76V145.736H6.28238V152.296H13.6424V155.272H6.28238V165H2.63438V142.76H15.7224ZM26.7511 165.288C25.0871 165.288 23.5831 164.915 22.2391 164.168C20.8951 163.4 19.8391 162.333 19.0711 160.968C18.3031 159.581 17.9191 157.981 17.9191 156.168C17.9191 154.376 18.3138 152.787 19.1031 151.4C19.8925 150.013 20.9698 148.947 22.3351 148.2C23.7005 147.453 25.2258 147.08 26.9111 147.08C28.5965 147.08 30.1218 147.453 31.4871 148.2C32.8525 148.947 33.9298 150.013 34.7191 151.4C35.5085 152.787 35.9031 154.376 35.9031 156.168C35.9031 157.96 35.4978 159.549 34.6871 160.936C33.8765 162.323 32.7671 163.4 31.3591 164.168C29.9725 164.915 28.4365 165.288 26.7511 165.288ZM26.7511 162.12C27.6898 162.12 28.5645 161.896 29.3751 161.448C30.2071 161 30.8791 160.328 31.3911 159.432C31.9031 158.536 32.1591 157.448 32.1591 156.168C32.1591 154.888 31.9138 153.811 31.4231 152.936C30.9325 152.04 30.2818 151.368 29.4711 150.92C28.6605 150.472 27.7858 150.248 26.8471 150.248C25.9085 150.248 25.0338 150.472 24.2231 150.92C23.4338 151.368 22.8045 152.04 22.3351 152.936C21.8658 153.811 21.6311 154.888 21.6311 156.168C21.6311 158.067 22.1111 159.539 23.0711 160.584C24.0525 161.608 25.2791 162.12 26.7511 162.12ZM47.1574 165.288C45.4934 165.288 43.9894 164.915 42.6454 164.168C41.3014 163.4 40.2454 162.333 39.4774 160.968C38.7094 159.581 38.3254 157.981 38.3254 156.168C38.3254 154.376 38.72 152.787 39.5094 151.4C40.2987 150.013 41.376 148.947 42.7414 148.2C44.1067 147.453 45.632 147.08 47.3174 147.08C49.0027 147.08 50.528 147.453 51.8934 148.2C53.2587 148.947 54.336 150.013 55.1254 151.4C55.9147 152.787 56.3094 154.376 56.3094 156.168C56.3094 157.96 55.904 159.549 55.0934 160.936C54.2827 162.323 53.1734 163.4 51.7654 164.168C50.3787 164.915 48.8427 165.288 47.1574 165.288ZM47.1574 162.12C48.096 162.12 48.9707 161.896 49.7814 161.448C50.6134 161 51.2854 160.328 51.7974 159.432C52.3094 158.536 52.5654 157.448 52.5654 156.168C52.5654 154.888 52.32 153.811 51.8294 152.936C51.3387 152.04 50.688 151.368 49.8774 150.92C49.0667 150.472 48.192 150.248 47.2534 150.248C46.3147 150.248 45.44 150.472 44.6294 150.92C43.84 151.368 43.2107 152.04 42.7414 152.936C42.272 153.811 42.0374 154.888 42.0374 156.168C42.0374 158.067 42.5174 159.539 43.4774 160.584C44.4587 161.608 45.6854 162.12 47.1574 162.12ZM58.6996 156.104C58.6996 154.333 59.0623 152.765 59.7876 151.4C60.5343 150.035 61.537 148.979 62.7956 148.232C64.0756 147.464 65.4943 147.08 67.0516 147.08C68.2036 147.08 69.3343 147.336 70.4436 147.848C71.5743 148.339 72.4703 149 73.1316 149.832V141.32H76.8116V165H73.1316V162.344C72.5343 163.197 71.7023 163.901 70.6356 164.456C69.5903 165.011 68.385 165.288 67.0196 165.288C65.4836 165.288 64.0756 164.904 62.7956 164.136C61.537 163.347 60.5343 162.259 59.7876 160.872C59.0623 159.464 58.6996 157.875 58.6996 156.104ZM73.1316 156.168C73.1316 154.952 72.8756 153.896 72.3636 153C71.873 152.104 71.2223 151.421 70.4116 150.952C69.601 150.483 68.7263 150.248 67.7876 150.248C66.849 150.248 65.9743 150.483 65.1636 150.952C64.353 151.4 63.6916 152.072 63.1796 152.968C62.689 153.843 62.4436 154.888 62.4436 156.104C62.4436 157.32 62.689 158.387 63.1796 159.304C63.6916 160.221 64.353 160.925 65.1636 161.416C65.9956 161.885 66.8703 162.12 67.7876 162.12C68.7263 162.12 69.601 161.885 70.4116 161.416C71.2223 160.947 71.873 160.264 72.3636 159.368C72.8756 158.451 73.1316 157.384 73.1316 156.168ZM105.027 142.76V165H101.379V149.768L94.5951 165H92.0671L85.2511 149.768V165H81.6031V142.76H85.5391L93.3471 160.2L101.123 142.76H105.027ZM108.606 156.104C108.606 154.333 108.969 152.765 109.694 151.4C110.441 150.035 111.443 148.979 112.702 148.232C113.982 147.464 115.39 147.08 116.926 147.08C118.313 147.08 119.518 147.357 120.542 147.912C121.587 148.445 122.419 149.117 123.038 149.928V147.368H126.718V165H123.038V162.376C122.419 163.208 121.577 163.901 120.51 164.456C119.443 165.011 118.227 165.288 116.862 165.288C115.347 165.288 113.961 164.904 112.702 164.136C111.443 163.347 110.441 162.259 109.694 160.872C108.969 159.464 108.606 157.875 108.606 156.104ZM123.038 156.168C123.038 154.952 122.782 153.896 122.27 153C121.779 152.104 121.129 151.421 120.318 150.952C119.507 150.483 118.633 150.248 117.694 150.248C116.755 150.248 115.881 150.483 115.07 150.952C114.259 151.4 113.598 152.072 113.086 152.968C112.595 153.843 112.35 154.888 112.35 156.104C112.35 157.32 112.595 158.387 113.086 159.304C113.598 160.221 114.259 160.925 115.07 161.416C115.902 161.885 116.777 162.12 117.694 162.12C118.633 162.12 119.507 161.885 120.318 161.416C121.129 160.947 121.779 160.264 122.27 159.368C122.782 158.451 123.038 157.384 123.038 156.168ZM135.157 149.928C135.691 149.032 136.395 148.339 137.269 147.848C138.165 147.336 139.221 147.08 140.437 147.08V150.856H139.509C138.08 150.856 136.992 151.219 136.245 151.944C135.52 152.669 135.157 153.928 135.157 155.72V165H131.509V147.368H135.157V149.928ZM150.767 156.2L158.895 165H153.967L147.439 157.416V165H143.791V141.32H147.439V155.08L153.839 147.368H158.895L150.767 156.2ZM177.669 155.752C177.669 156.413 177.627 157.011 177.541 157.544H164.069C164.176 158.952 164.699 160.083 165.637 160.936C166.576 161.789 167.728 162.216 169.093 162.216C171.056 162.216 172.443 161.395 173.253 159.752H177.189C176.656 161.373 175.685 162.707 174.277 163.752C172.891 164.776 171.163 165.288 169.093 165.288C167.408 165.288 165.893 164.915 164.549 164.168C163.227 163.4 162.181 162.333 161.413 160.968C160.667 159.581 160.293 157.981 160.293 156.168C160.293 154.355 160.656 152.765 161.381 151.4C162.128 150.013 163.163 148.947 164.485 148.2C165.829 147.453 167.365 147.08 169.093 147.08C170.757 147.08 172.24 147.443 173.541 148.168C174.843 148.893 175.856 149.917 176.581 151.24C177.307 152.541 177.669 154.045 177.669 155.752ZM173.861 154.6C173.84 153.256 173.36 152.179 172.421 151.368C171.483 150.557 170.32 150.152 168.933 150.152C167.675 150.152 166.597 150.557 165.701 151.368C164.805 152.157 164.272 153.235 164.101 154.6H173.861ZM185.515 150.344V160.104C185.515 160.765 185.665 161.245 185.963 161.544C186.283 161.821 186.817 161.96 187.563 161.96H189.803V165H186.923C185.281 165 184.022 164.616 183.147 163.848C182.273 163.08 181.835 161.832 181.835 160.104V150.344H179.755V147.368H181.835V142.984H185.515V147.368H189.803V150.344H185.515Z" fill="#020202"/>
<defs>
<clipPath id="clip0_1554_198">
<rect width="100" height="100" fill="white" transform="translate(46)"/>
</clipPath>
</defs>
</svg>
